<?xml version="1.0" encoding="iso-8859-1"?>
<!-- Generator: Adobe Illustrator 19.0.0, SVG Export Plug-In . SVG Version: 6.00 Build 0)  -->
<svg version="1.1" id="Capa_1" xmlns="http://www.w3.org/2000/svg" xmlns:xlink="http://www.w3.org/1999/xlink" x="0px" y="0px"
	 viewBox="0 0 480 480" style="enable-background:new 0 0 480 480;" xml:space="preserve">
<g>
	<g>
		<rect x="12" width="16" height="480"/>
	</g>
</g>
<g>
	<g>
		<rect x="452" width="16" height="480"/>
	</g>
</g>
<g>
	<g>
		<path d="M431.748,363.441c-0.001-0.003-0.003-0.006-0.004-0.01L381.816,253.6l29.136-13.24c4.028-1.816,5.821-6.553,4.005-10.581
			c-0.002-0.004-0.003-0.007-0.005-0.011l-3.408-7.496c-7.256-15.969-26.084-23.033-42.053-15.777c-0.001,0-0.002,0.001-0.003,0.001
			l-7.504,3.408l-20.144-44.312c-10.797-23.798-38.841-34.339-62.64-23.544l-74.064,33.664
			c-11.463,5.153-20.385,14.68-24.776,26.456c-4.444,11.758-3.998,24.805,1.24,36.232l20.144,44.32l-7.504,3.408
			c-15.969,7.256-23.033,26.084-15.777,42.053c0,0.001,0.001,0.002,0.001,0.003l3.408,7.496c0.877,1.933,2.485,3.438,4.472,4.184
			c0.902,0.333,1.855,0.504,2.816,0.504c1.14,0.003,2.267-0.24,3.304-0.712L221.6,326.4l49.92,109.848
			c10.726,23.759,38.682,34.324,62.441,23.598c0.075-0.034,0.149-0.068,0.223-0.102l74.064-33.656
			C432.037,415.278,442.558,387.23,431.748,363.441z M376.08,221.024c7.924-3.599,17.266-0.097,20.872,7.824l0.096,0.216L375.2,239
			l-6.624-14.568L376.08,221.024z M285.776,156.616c12.884-5.932,28.151-2.352,37.056,8.688c-13.738,10.345-33.217,7.861-43.92-5.6
			L285.776,156.616z M211.704,190.296l6.872-3.144c3.099,16.919-7.859,33.223-24.696,36.744
			C191.439,209.938,198.779,196.103,211.704,190.296z M193.12,321.744l-0.096-0.216c-3.599-7.922-0.096-17.262,7.824-20.864
			l7.504-3.408l6.616,14.568L193.12,321.744z M401.628,411.507c-0.009,0.004-0.018,0.008-0.028,0.013l-74.072,33.664
			c-15.747,7.136-34.298,0.16-41.44-15.584l-53.24-117.112l-13.24-29.136l-20.152-44.336c25.568-6.714,40.852-32.883,34.138-58.451
			c-0.017-0.063-0.033-0.126-0.05-0.189L264,166.496c5.52,8.282,13.5,14.623,22.816,18.128c14.523,5.677,30.927,3.688,43.672-5.296
			l86.696,190.72C424.337,385.792,417.372,404.354,401.628,411.507z"/>
	</g>
</g>
<g>
	<g>
		<rect x="236" width="16" height="48"/>
	</g>
</g>
<g>
	<g>
		<rect x="236" y="80" width="16" height="48"/>
	</g>
</g>
<g>
	<g>
		<rect x="236" y="432" width="16" height="48"/>
	</g>
</g>
<g>
	<g>
		<path d="M397.613,366.638c-0.26-0.28-0.54-0.542-0.837-0.782l-26.336-21.32l-12.456-27.416l14.56-6.616l-6.616-14.568
			l-14.568,6.616l-9.392-20.664l-5.168-49.024c-0.223-2.112-1.276-4.049-2.928-5.384c-1.657-1.32-3.763-1.943-5.872-1.736
			c-34.363,3.687-66.623,18.348-92,41.808c-3.238,3.005-3.428,8.065-0.424,11.304l33.544,36.128l9.392,20.672l-14.56,6.624
			l6.616,14.56l14.56-6.616L297.6,377.64l-1.256,33.864c-0.163,4.415,3.283,8.127,7.699,8.291c0.1,0.004,0.201,0.005,0.301,0.005
			c0.281,0,0.561-0.016,0.84-0.048c34.363-3.687,66.623-18.348,92-41.808C400.424,374.941,400.617,369.879,397.613,366.638z
			 M277.824,300.8L252.92,274c19.777-16.33,43.531-27.124,68.84-31.28l3.832,36.4L277.824,300.8z M286.4,314.464l43.696-19.856
			l23.2,50.984L309.6,365.456L286.4,314.464z M312.696,402.568l0.8-21.28l49.256-22.4l16.56,13.4
			C360.062,387.912,337.126,398.338,312.696,402.568z"/>
	</g>
</g>
<g>
	<g>
		<rect x="124" y="40" width="16" height="64"/>
	</g>
</g>
<g>
	<g>
		<circle cx="132" cy="136" r="16"/>
	</g>
</g>
<g>
	<g>
		<path d="M132,8C83.399,8,44,47.399,44,96c0.057,48.577,39.423,87.943,88,88c48.601,0,88-39.399,88-88S180.601,8,132,8z M132,168
			c-39.765,0-72-32.236-72-72c0.048-39.744,32.256-71.952,72-72c39.765,0,72,32.235,72,72C204,135.764,171.765,168,132,168z"/>
	</g>
</g>
<g>
</g>
<g>
</g>
<g>
</g>
<g>
</g>
<g>
</g>
<g>
</g>
<g>
</g>
<g>
</g>
<g>
</g>
<g>
</g>
<g>
</g>
<g>
</g>
<g>
</g>
<g>
</g>
<g>
</g>
</svg>
