<?xml version="1.0" encoding="iso-8859-1"?>
<!-- Generator: Adobe Illustrator 19.0.0, SVG Export Plug-In . SVG Version: 6.00 Build 0)  -->
<svg xmlns="http://www.w3.org/2000/svg" xmlns:xlink="http://www.w3.org/1999/xlink" version="1.1" id="Layer_1" x="0px" y="0px" viewBox="0 0 508.148 508.148" style="enable-background:new 0 0 508.148 508.148;" xml:space="preserve" width="512" height="512">
<g>
	<g>
		<g id="XMLID_40_">
			<g>
				<g>
					<rect x="198.396" y="31.816" style="fill:rgb(0,0,0);" width="79.54" height="15"/>
				</g>
				<g>
					<rect x="325.66" y="31.816" style="fill:rgb(0,0,0);" width="15.908" height="15"/>
				</g>
				<g>
					<polygon style="fill:rgb(0,0,0);" points="404.746,142.718 389.746,142.718 389.746,110.448 357.476,110.448 357.476,95.448        404.746,95.448      "/>
				</g>
				<g>
					<rect x="166.58" y="397.7" style="fill:rgb(0,0,0);" width="15.908" height="15"/>
				</g>
				<g>
					<rect x="190.442" y="342.022" style="fill:rgb(0,0,0);" width="15.908" height="15"/>
				</g>
				<g>
					<polygon style="fill:rgb(0,0,0);" points="372.93,388.838 318.16,388.838 318.16,357.022 254.074,357.022 254.074,342.022        333.16,342.022 333.16,373.838 357.93,373.838 357.93,285.436 286.344,285.436 286.344,206.35 301.344,206.35 301.344,270.436        372.93,270.436      "/>
				</g>
				<g>
					<rect x="286.344" y="134.764" style="fill:rgb(0,0,0);" width="15" height="15.908"/>
				</g>
				<g>
					<path style="fill:rgb(0,0,0);" d="M333.614,0v15h87.948v48.632h-303.16V15h191.35V0h-206.35v131.135       c-20.265,16.643-31.816,40.942-31.816,67.261h15c0-22.834,10.507-43.844,28.81-57.627c12.597-9.429,27.546-14.413,43.23-14.413       c39.723,0,72.04,32.317,72.04,72.04c0,24.987-12.682,47.791-33.924,61.002l-1.652,1.027l-36.463,65.689l-36.459-65.682       l-1.643-1.026c-1.99-1.244-3.612-2.354-4.957-3.393l-0.101-0.077c-12.195-9.096-21.04-21.521-25.578-35.932l-14.308,4.506       c5.098,16.185,14.684,30.29,27.822,41.023v242.614h333.16V0H333.614z M118.402,493.148v-48.632h215.212v-15H118.402V284.557       l40.224,72.464l47.712-85.953c24.666-16.11,39.328-43.128,39.328-72.672c0-47.994-39.046-87.04-87.04-87.04       c-14.179,0-27.856,3.371-40.224,9.842V78.632h303.16v350.884h-64.086v15h64.086v48.632H118.402z"/>
					<rect x="293.844" y="31.816" style="fill:rgb(0,0,0);" width="15.908" height="15"/>
					<rect x="262.028" y="461.333" style="fill:rgb(0,0,0);" width="15.908" height="15"/>
					<rect x="389.746" y="158.626" style="fill:rgb(0,0,0);" width="15" height="15.908"/>
					<rect x="134.764" y="397.7" style="fill:rgb(0,0,0);" width="15.908" height="15"/>
					<rect x="134.764" y="365.884" style="fill:rgb(0,0,0);" width="15.908" height="15"/>
					<path style="fill:rgb(0,0,0);" d="M158.626,237.712c21.679,0,39.316-17.637,39.316-39.316c0-21.679-17.637-39.316-39.316-39.316       c-21.679,0-39.316,17.637-39.316,39.316C119.31,220.075,136.947,237.712,158.626,237.712z M158.626,174.08       c13.408,0,24.316,10.908,24.316,24.316c0,13.408-10.908,24.316-24.316,24.316c-13.408,0-24.316-10.908-24.316-24.316       C134.31,184.988,145.218,174.08,158.626,174.08z"/>
					<rect x="222.258" y="342.022" style="fill:rgb(0,0,0);" width="15.908" height="15"/>
					<rect x="286.344" y="166.58" style="fill:rgb(0,0,0);" width="15" height="15.908"/>
					<rect x="286.344" y="102.948" style="fill:rgb(0,0,0);" width="15" height="15.908"/>
				</g>
			</g>
		</g>
	</g>
</g>















</svg>